<svg id="visual" viewBox="0 0 960 540" width="960" height="540" xmlns="http://www.w3.org/2000/svg" xmlns:xlink="http://www.w3.org/1999/xlink" version="1.1"><rect x="0" y="0" width="960" height="540" fill="#d9d9d9"></rect><defs><linearGradient id="grad1_0" x1="43.8%" y1="100%" x2="100%" y2="0%"><stop offset="14.444444444444446%" stop-color="#284b63" stop-opacity="1"></stop><stop offset="85.55555555555554%" stop-color="#284b63" stop-opacity="1"></stop></linearGradient></defs><defs><linearGradient id="grad1_1" x1="43.8%" y1="100%" x2="100%" y2="0%"><stop offset="14.444444444444446%" stop-color="#284b63" stop-opacity="1"></stop><stop offset="85.55555555555554%" stop-color="#d9d9d9" stop-opacity="1"></stop></linearGradient></defs><defs><linearGradient id="grad2_0" x1="0%" y1="100%" x2="56.3%" y2="0%"><stop offset="14.444444444444446%" stop-color="#284b63" stop-opacity="1"></stop><stop offset="85.55555555555554%" stop-color="#284b63" stop-opacity="1"></stop></linearGradient></defs><defs><linearGradient id="grad2_1" x1="0%" y1="100%" x2="56.3%" y2="0%"><stop offset="14.444444444444446%" stop-color="#d9d9d9" stop-opacity="1"></stop><stop offset="85.55555555555554%" stop-color="#284b63" stop-opacity="1"></stop></linearGradient></defs><g transform="translate(960, 540)"><path d="M-243 0C-241.7 -21.3 -240.3 -42.7 -234.7 -62.9C-229.1 -83.1 -219.2 -102.2 -207.8 -120C-196.5 -137.8 -183.8 -154.4 -168.3 -168.3C-152.8 -182.2 -134.4 -193.3 -115.5 -200.1C-96.6 -206.8 -77.1 -209 -57.7 -215.4C-38.4 -221.8 -19.2 -232.4 0 -243L0 0Z" fill="#808f9c"></path><path d="M-121.5 0C-120.8 -10.7 -120.2 -21.3 -117.4 -31.4C-114.5 -41.6 -109.6 -51.1 -103.9 -60C-98.3 -68.9 -91.9 -77.2 -84.1 -84.1C-76.4 -91.1 -67.2 -96.7 -57.8 -100C-48.3 -103.4 -38.5 -104.5 -28.9 -107.7C-19.2 -110.9 -9.6 -116.2 0 -121.5L0 0Z" fill="#284b63"></path></g><g transform="translate(0, 0)"><path d="M243 0C230.3 18.8 217.5 37.6 210.6 56.4C203.6 75.3 202.5 94.2 196.6 113.5C190.6 132.8 179.9 152.5 164 164C148.2 175.6 127.4 179.1 110.5 191.4C93.6 203.6 80.7 224.7 62.9 234.7C45.1 244.8 22.6 243.9 0 243L0 0Z" fill="#808f9c"></path><path d="M121.5 0C115.1 9.4 108.8 18.8 105.3 28.2C101.8 37.6 101.3 47.1 98.3 56.7C95.3 66.4 89.9 76.2 82 82C74.1 87.8 63.7 89.6 55.3 95.7C46.8 101.8 40.3 112.3 31.4 117.4C22.6 122.4 11.3 121.9 0 121.5L0 0Z" fill="#284b63"></path></g></svg>