<?xml version="1.0" standalone="no"?><svg xmlns="http://www.w3.org/2000/svg" viewBox="0 0 1440 320"><path fill="#1c1e27" fill-opacity="1" d="M0,320L34.3,272C68.6,224,137,128,206,128C274.3,128,343,224,411,234.7C480,245,549,171,617,122.7C685.7,75,754,53,823,74.7C891.4,96,960,160,1029,181.3C1097.1,203,1166,181,1234,186.7C1302.9,192,1371,224,1406,240L1440,256L1440,0L1405.7,0C1371.4,0,1303,0,1234,0C1165.7,0,1097,0,1029,0C960,0,891,0,823,0C754.3,0,686,0,617,0C548.6,0,480,0,411,0C342.9,0,274,0,206,0C137.1,0,69,0,34,0L0,0Z"></path></svg>